<?xml version="1.0" encoding="UTF-8"?>
<svg width="640" height="400" viewBox="0 0 640 400" xmlns="http://www.w3.org/2000/svg">
<style>text{font-family:'Inter',sans-serif;font-size:14px;fill:#222}</style>
<text x="320.0" y="30" text-anchor="middle" font-size="18" font-weight="600">Digital Delta Ecosystem Balance</text>
<line x1="80" y1="40" x2="80" y2="340" stroke="#555" stroke-width="1" />
<line x1="80" y1="340" x2="600.0" y2="340" stroke="#555" stroke-width="1" />
<text x="35" y="190.0" transform="rotate(-90 35,190.0)">Entity Count</text>
<text x="320.0" y="385" text-anchor="middle">Categories</text>
<line x1="75" y1="340.0" x2="80" y2="340.0" stroke="#777" stroke-width="1" />
<text x="70" y="345.0" text-anchor="end">0</text>
<line x1="75" y1="306.6666666666667" x2="80" y2="306.6666666666667" stroke="#777" stroke-width="1" />
<text x="70" y="311.6666666666667" text-anchor="end">1</text>
<line x1="75" y1="273.33333333333337" x2="80" y2="273.33333333333337" stroke="#777" stroke-width="1" />
<text x="70" y="278.33333333333337" text-anchor="end">2</text>
<line x1="75" y1="240.0" x2="80" y2="240.0" stroke="#777" stroke-width="1" />
<text x="70" y="245.0" text-anchor="end">3</text>
<line x1="75" y1="206.66666666666669" x2="80" y2="206.66666666666669" stroke="#777" stroke-width="1" />
<text x="70" y="211.66666666666669" text-anchor="end">4</text>
<line x1="75" y1="173.33333333333331" x2="80" y2="173.33333333333331" stroke="#777" stroke-width="1" />
<text x="70" y="178.33333333333331" text-anchor="end">5</text>
<line x1="75" y1="140.0" x2="80" y2="140.0" stroke="#777" stroke-width="1" />
<text x="70" y="145.0" text-anchor="end">6</text>
<line x1="75" y1="106.66666666666666" x2="80" y2="106.66666666666666" stroke="#777" stroke-width="1" />
<text x="70" y="111.66666666666666" text-anchor="end">7</text>
<line x1="75" y1="73.33333333333337" x2="80" y2="73.33333333333337" stroke="#777" stroke-width="1" />
<text x="70" y="78.33333333333337" text-anchor="end">8</text>
<line x1="75" y1="40.0" x2="80" y2="40.0" stroke="#777" stroke-width="1" />
<text x="70" y="45.0" text-anchor="end">9</text>
<rect x="110" y="40.0" width="60" height="300.0" fill="#1f77b4" stroke="#222" stroke-width="1" />
<text x="140.0" y="32.0" text-anchor="middle" font-size="12">9</text>
<text x="140.0" y="360" text-anchor="middle" font-size="12">Industry</text>
<rect x="200" y="173.33333333333331" width="60" height="166.66666666666669" fill="#ff7f0e" stroke="#222" stroke-width="1" />
<text x="230.0" y="165.33333333333331" text-anchor="middle" font-size="12">5</text>
<text x="230.0" y="360" text-anchor="middle" font-size="12">Academia</text>
<rect x="290" y="140.0" width="60" height="200.0" fill="#2ca02c" stroke="#222" stroke-width="1" />
<text x="320.0" y="132.0" text-anchor="middle" font-size="12">6</text>
<text x="320.0" y="360" text-anchor="middle" font-size="12">Government</text>
<rect x="380" y="173.33333333333331" width="60" height="166.66666666666669" fill="#d62728" stroke="#222" stroke-width="1" />
<text x="410.0" y="165.33333333333331" text-anchor="middle" font-size="12">5</text>
<text x="410.0" y="360" text-anchor="middle" font-size="12">Community</text>
<rect x="470" y="140.0" width="60" height="200.0" fill="#9467bd" stroke="#222" stroke-width="1" />
<text x="500.0" y="132.0" text-anchor="middle" font-size="12">6</text>
<text x="500.0" y="360" text-anchor="middle" font-size="12">Startups</text>
</svg>
